<?xml version="1.0" encoding="UTF-8" standalone="no"?>
<!DOCTYPE svg PUBLIC "-//W3C//DTD SVG 1.1//EN"
 "http://www.w3.org/Graphics/SVG/1.1/DTD/svg11.dtd">
<!-- Generated by graphviz version 2.40.1 (20161225.0304)
 -->
<!-- Title: G Pages: 1 -->
<svg width="158pt" height="130pt"
 viewBox="0.00 0.00 157.81 130.00" xmlns="http://www.w3.org/2000/svg" xmlns:xlink="http://www.w3.org/1999/xlink">
<g id="graph0" class="graph" transform="scale(1 1) rotate(0) translate(4 126)">
<title>G</title>
<polygon fill="#ffffff" stroke="transparent" points="-4,4 -4,-126 153.814,-126 153.814,4 -4,4"/>
<g id="clust1" class="cluster">
<title>cluster_Global</title>
<path fill="none" stroke="#c0c0c0" d="M20,-8C20,-8 129.814,-8 129.814,-8 135.814,-8 141.814,-14 141.814,-20 141.814,-20 141.814,-102 141.814,-102 141.814,-108 135.814,-114 129.814,-114 129.814,-114 20,-114 20,-114 14,-114 8,-108 8,-102 8,-102 8,-20 8,-20 8,-14 14,-8 20,-8"/>
<text text-anchor="middle" x="74.907" y="-101.2" font-family="Times,serif" font-size="11.00" fill="#c0c0c0">Global</text>
</g>
<g id="clust2" class="cluster">
<title>cluster_\Battis</title>
<path fill="none" stroke="#c0c0c0" d="M28,-16C28,-16 121.814,-16 121.814,-16 127.814,-16 133.814,-22 133.814,-28 133.814,-28 133.814,-75 133.814,-75 133.814,-81 127.814,-87 121.814,-87 121.814,-87 28,-87 28,-87 22,-87 16,-81 16,-75 16,-75 16,-28 16,-28 16,-22 22,-16 28,-16"/>
<text text-anchor="middle" x="74.907" y="-74.2" font-family="Times,serif" font-size="11.00" fill="#c0c0c0">Battis</text>
</g>
<!-- \\Battis\\DataUtilities -->
<g id="node1" class="node">
<title>\\Battis\\DataUtilities</title>
<polygon fill="none" stroke="#000000" points="125.7211,-60 24.0928,-60 24.0928,-24 125.7211,-24 125.7211,-60"/>
<text text-anchor="middle" x="74.907" y="-38.7" font-family="Courier,monospace" font-size="11.00" fill="#000000">DataUtilities</text>
</g>
</g>
</svg>
